<svg viewBox="0 0 1183 243" xmlns="http://www.w3.org/2000/svg" xmlns:xlink="http://www.w3.org/1999/xlink">
    <defs>
        <path id="a" d="M0 .379h1184v248H0z"/>
    </defs>
    <g transform="translate(0 -6)" fill="none" fill-rule="evenodd">
        <g transform="translate(0 .62)">
            <mask id="b" fill="#fff">
                <use xlink:href="#a"/>
            </mask>
            <g mask="url(#b)" fill="#0069FF" fill-opacity=".25" fill-rule="nonzero">
                <path d="M1175.483 214.419c-.468-.074-.937-.148-.863-.618.075-.47-.862-.618-1.8-.766-1.8-.767-3.673-1.063-5.548-1.36-.937-.149-1.874-.297-2.736-.915l-.469-.074c-5.08-1.286-10.553-3.116-15.484-5.34-1.332-.693-2.514-2.324-2.76-3.806.469.074 0 0 0 0l-3.6-1.533c4.032-13.319 5.325-27.552 4.67-41.613-1.123-14.135-4.663-28.172-10.3-41.097l3.257-2.372.074-.47c.223-1.408.99-3.212 2.075-4.002 4.812-3.088 9.475-5.238 14.606-7.313 1.012-.32 2.023-.642 3.035-.963 2.023-.642 3.577-1.358 5.6-2 .543-.396 1.011-.322 1.554-.717.543-.395.075-.47.149-.939 4.737-2.619 6.567-8.104 3.956-12.85-1.108-2.1-3.696-3.954-6.039-4.325-2.343-.37-4.834.197-6.931 1.309l-.543.395c-.543.395-1.086.79-1.554.717-1.63 1.185-3.258 2.371-4.418 3.631-.617.865-1.629 1.186-2.172 1.582-3.874 3.236-8.686 6.324-13.35 8.473-1.01.322-2.022.643-2.96.494-.468-.074-1.405-.222-1.799-.766l-.469-.074-4.12 1.754c-3.153-4.35-6.775-8.774-9.929-13.124-15.18-16.361-35.393-28.226-57.043-34.061l.126-3.83-.074.469c-1.257-1.162-1.503-2.644-1.748-4.127.818-5.165 1.636-10.33 3.465-15.815l.075-.47c.149-.938.766-1.803.915-2.742.765-1.804 1.063-3.682 1.829-5.486l.446-2.817c1.212-4.62-1.792-9.91-6.403-11.121-2.737-.915-5.772.048-8.486 2.025-2.172 1.581-3.48 3.78-3.853 6.128l-.371 2.347c-.298 1.878-.127 3.83.044 5.783.32 1.013.171 1.952.023 2.89l-.075.47c.12 5.313-.699 10.478-1.59 16.112-.693 1.334-1.384 2.669-2.938 3.385l-.15.939-1.063 3.682c-5.228-.347-10.53-.224-16.302-.176-22.765 1.207-44.771 9.754-62.836 23.738l-2.514-2.324-.468-.074c-.469-.074-1.012.321-1.949.173-.937-.148-1.8-.766-2.662-1.384-3.697-3.955-7.319-8.379-10.004-12.654-.32-1.013-1.182-1.631-1.576-2.175-1.183-1.631-1.897-3.188-3.08-4.82-.394-.543-.862-.617-1.256-1.16l-.394-.545c-1.651-1.705-3.845-3.015-6.188-3.386-2.811-.445-5.303.123-7.08 2.248-3.48 3.78-3.436 9.562-.208 13.443.468.074.394.543.394.543s.788 1.088 1.257 1.162c1.257 1.162 2.982 2.397 4.708 3.633l2.588 1.854c4.239 3.56 8.478 7.118 11.632 11.468.788 1.087 1.428 3.114.736 4.448l.074-.47 2.365 3.263c-.617.865-1.16 1.26-1.777 2.125-18.169 20.705-28.573 46.972-28.594 74.401l-3.897.346c-.075.47-.543.395-.543.395-.692 1.334-2.246 2.05-3.8 2.767a87.951 87.951 0 01-16.377.294c-.937-.149-1.874-.297-2.886.024-1.874-.297-3.823-.124-5.697-.42-.468-.075-1.011.32-1.948.172-.469-.074-.469-.074-1.012.32-5.302.124-9.326 4.3-9.207 9.612.268 4.374 4.039 7.859 8.33 8.057.937.149 1.406.223 2.417-.098.469.074.469.074.543-.395.074-.47 1.406.222 1.874.296 1.949-.172 3.972-.814 5.452-1.061 1.011-.321 2.023-.642 2.96-.494l.468.074c5.452-1.062 10.36-1.728 16.131-1.776l.469.074c1.405.222 2.737.915 3.525 2.002.469.074.394.544.394.544l4.291.198c3.608 22.71 13.678 44.038 29.72 61.017 3.697 3.955 7 7.365 11.313 10.455l-2.864 2.916c-.074.47.395.543.395.543.714 1.557.416 3.435-.275 4.77-2.618 4.398-6.173 8.648-9.654 12.428l-.074.47c-.617.864-1.16 1.26-2.246 2.05-1.086.79-2.32 2.52-4.023 4.176-.543.395-.618.864-1.16 1.26 0 0-.075.47-.543.395-3.087 4.324-2.105 10.255 1.74 13.27.863.618 2.194 1.31 3.131 1.459 3.748.593 7.4-1.235 9.795-4.224 0 0 .074-.47.543-.396.074-.47.617-.864 1.16-1.26.766-1.803 1.926-3.064 2.692-4.867l1.383-2.669c2.224-4.942 5.31-9.266 8.397-13.59 1.16-1.26 2.714-1.976 4.194-2.223.469.074.469.074.543-.396l2.469-3.459c12.301 7.243 25.517 11.742 39.573 13.969 8.434 1.335 17.017 1.732 25.822.72 5.303-.122 10.754-1.184 15.663-1.85l1.353 3.583c.469.074.469.074.395.544 1.33.692 2.588 1.853 3.302 3.41 1.599 5.066 3.198 10.133 3.786 15.52l-.075.47.491 2.965c.171 1.952.342 3.904 1.056 5.461.395.544.32 1.013.714 1.557 0 0-.074.47.395.544 1.353 3.583 4.261 6.45 8.01 7.044 1.405.222 2.417-.099 3.897-.346 2.022-.642 4.194-2.223 5.034-4.496.84-2.274 1.213-4.621.647-7.117.075-.47-.394-.544-.394-.544.074-.47-.32-1.013-.714-1.557-.64-2.026-1.354-3.583-2.536-5.214-.32-1.013-.714-1.557-1.502-2.645l.148-.939c-2.61-4.745-4.21-9.81-5.34-14.803-.245-1.482.052-3.36 1.212-4.62.075-.47.543-.396.543-.396l-.81-3.978c26.2-10.77 48.043-30.412 60.715-55.838l3.674 1.063c.469.074.543-.395.543-.395 1.086-.791 2.566-1.038 3.972-.815l.468.074c5.005 1.755 9.936 3.98 14.324 6.6l.469.074c.862.618 1.725 1.236 2.662 1.385 1.726 1.235 2.983 2.397 4.782 3.163.469.075.863.618 1.8.767.469.074.469.074.863.618.863.618 1.331.692 2.268.84 4.217.668 8.412-1.555 10.412-5.089.35-5.238-2.804-9.588-6.872-11.195zm-133.103-36.001l-13.618 4.1-11.684-8.108-1.123-14.135 10.687-9.858 14.056 2.226 7.118 12.679-5.436 13.096zm81.206-18.422c.78 10.23-.312 20.165-2.811 29.876l-42.504-19.727c-4.068-1.607-5.741-6.203-4.135-10.28.692-1.335 1.309-2.2 2.395-2.99l40.197-26.36c3.815 9.267 6.076 19.25 6.858 29.481zm-18.163-49.08l-42.733 21.146c-3.578 1.359-8.189.147-10.01-3.51-.79-1.088-1.11-2.1-.886-3.51l4.7-47.865c20.243 5.613 37.104 17.428 48.93 33.74zM1024.41 73.54l9.669-.394-9.78 46.58c-.668 4.225-4.937 6.918-9.154 6.25-1.406-.223-2.269-.84-3.6-1.533l-34.501-33.86c14.04-9.808 30.373-15.885 47.366-17.043zm-63.706 32.262l29.765 36.48c2.833 3.336 2.558 8.105-.774 10.946-1.16 1.26-2.171 1.581-4.12 1.754l-47.53 5.948c1.717-19.942 9.6-39.389 22.66-55.128zm-20.532 78.085l47.65-.635c3.748.594 7.125 3.535 6.998 7.366.246 1.482-.052 3.36-1.212 4.62l-24.646 40.375c-14.688-13.396-25.205-31.907-28.79-51.726zm97.138 75.064c-6.783.37-13.49.27-20.519-.843-9.84-1.558-19.85-5.07-28.775-9.37l29.577-38.15c2.79-2.446 6.686-2.791 9.669-.394 1.256 1.162 2.045 2.25 3.227 3.88l16.02 44.41c-2.885.024-5.77.048-9.199.467zm63.632-31.793c-8.813 10.155-20.214 18.456-32.575 23.718l-11.283-47.028c-.342-3.904 2.127-7.364 5.63-8.253 1.48-.246 2.96-.493 4.366-.27l45.59 15.402c-3.384 6.202-7.162 11.86-11.728 16.431z"/>
            </g>
        </g>
        <path d="M215.997 155.078a1 1 0 00-1.994-.156l1.994.156zM201 190.5c0 2.172.607 4.551 1.517 6.976.912 2.433 2.154 4.977 3.473 7.489 2.671 5.088 5.603 9.964 7.074 13.886l1.872-.702c-1.529-4.078-4.597-9.202-7.176-14.114-1.306-2.488-2.502-4.944-3.371-7.261-.871-2.325-1.389-4.446-1.389-6.274h-2zm12.064 28.351c1.448 3.864 2.304 9.201 2.484 14.614.181 5.413-.317 10.796-1.506 14.747l1.916.576c1.272-4.231 1.774-9.848 1.589-15.39-.185-5.541-1.059-11.113-2.611-15.249l-1.872.702zm.939-63.929c-.776 9.903-2.951 14.697-4.835 17.523l1.664 1.11c2.116-3.174 4.368-8.317 5.165-18.477l-1.994-.156zm-4.835 17.523c-.485.728-1.198 1.646-2.07 2.841-.852 1.168-1.812 2.543-2.712 4.085-1.795 3.077-3.386 6.881-3.386 11.129h2c0-3.752 1.409-7.198 3.114-10.121.85-1.458 1.765-2.77 2.6-3.915.816-1.118 1.603-2.137 2.118-2.909l-1.664-1.11zM207.997 155.078a1 1 0 00-1.994-.156l1.994.156zM193 190.5c0 2.172.607 4.551 1.517 6.976.912 2.433 2.154 4.977 3.473 7.489 2.671 5.088 5.603 9.964 7.074 13.886l1.872-.702c-1.529-4.078-4.597-9.202-7.176-14.114-1.306-2.488-2.502-4.944-3.371-7.261-.871-2.325-1.389-4.446-1.389-6.274h-2zm12.064 28.351c1.448 3.864 2.304 9.201 2.484 14.614.181 5.413-.317 10.796-1.506 14.747l1.916.576c1.272-4.231 1.774-9.848 1.589-15.39-.185-5.541-1.059-11.113-2.611-15.249l-1.872.702zm.939-63.929c-.776 9.903-2.951 14.697-4.835 17.523l1.664 1.11c2.116-3.174 4.368-8.317 5.165-18.477l-1.994-.156zm-4.835 17.523c-.485.728-1.198 1.646-2.07 2.841-.852 1.168-1.812 2.543-2.712 4.085-1.795 3.077-3.386 6.881-3.386 11.129h2c0-3.752 1.409-7.198 3.114-10.121.85-1.458 1.765-2.77 2.6-3.915.816-1.118 1.603-2.137 2.118-2.909l-1.664-1.11zM198.997 155.078a1 1 0 00-1.994-.156l1.994.156zM184 190.5c0 2.172.607 4.551 1.517 6.976.912 2.433 2.154 4.977 3.473 7.489 2.671 5.088 5.603 9.964 7.074 13.886l1.872-.702c-1.529-4.078-4.597-9.202-7.176-14.114-1.306-2.488-2.502-4.944-3.371-7.261-.871-2.325-1.389-4.446-1.389-6.274h-2zm12.064 28.351c1.448 3.864 2.304 9.201 2.484 14.614.181 5.413-.317 10.796-1.506 14.747l1.916.576c1.272-4.231 1.774-9.848 1.589-15.39-.185-5.541-1.059-11.113-2.611-15.249l-1.872.702zm.939-63.929c-.776 9.903-2.951 14.697-4.835 17.523l1.664 1.11c2.116-3.174 4.368-8.317 5.165-18.477l-1.994-.156zm-4.835 17.523c-.485.728-1.198 1.646-2.07 2.841-.852 1.168-1.812 2.543-2.712 4.085-1.795 3.077-3.386 6.881-3.386 11.129h2c0-3.752 1.409-7.198 3.114-10.121.85-1.458 1.765-2.77 2.6-3.915.816-1.118 1.603-2.137 2.118-2.909l-1.664-1.11zM190.997 155.078a1 1 0 00-1.994-.156l1.994.156zM176 190.5c0 2.172.607 4.551 1.517 6.976.912 2.433 2.154 4.977 3.473 7.489 2.671 5.088 5.603 9.964 7.074 13.886l1.872-.702c-1.529-4.078-4.597-9.202-7.176-14.114-1.306-2.488-2.502-4.944-3.371-7.261-.871-2.325-1.389-4.446-1.389-6.274h-2zm12.064 28.351c1.448 3.864 2.304 9.201 2.484 14.614.181 5.413-.317 10.796-1.506 14.747l1.916.576c1.272-4.231 1.774-9.848 1.589-15.39-.185-5.541-1.059-11.113-2.611-15.249l-1.872.702zm.939-63.929c-.776 9.903-2.951 14.697-4.835 17.523l1.664 1.11c2.116-3.174 4.368-8.317 5.165-18.477l-1.994-.156zm-4.835 17.523c-.485.728-1.198 1.646-2.07 2.841-.852 1.168-1.812 2.543-2.712 4.085-1.795 3.077-3.386 6.881-3.386 11.129h2c0-3.752 1.409-7.198 3.114-10.121.85-1.458 1.765-2.77 2.6-3.915.816-1.118 1.603-2.137 2.118-2.909l-1.664-1.11zM182.997 155.078a1 1 0 00-1.994-.156l1.994.156zM168 190.5c0 2.172.607 4.551 1.517 6.976.912 2.433 2.154 4.977 3.473 7.489 2.671 5.088 5.603 9.964 7.074 13.886l1.872-.702c-1.529-4.078-4.597-9.202-7.176-14.114-1.306-2.488-2.502-4.944-3.371-7.261-.871-2.325-1.389-4.446-1.389-6.274h-2zm12.064 28.351c1.448 3.864 2.304 9.201 2.484 14.614.181 5.413-.317 10.796-1.506 14.747l1.916.576c1.272-4.231 1.774-9.848 1.589-15.39-.185-5.541-1.059-11.113-2.611-15.249l-1.872.702zm.939-63.929c-.776 9.903-2.951 14.697-4.835 17.523l1.664 1.11c2.116-3.174 4.368-8.317 5.165-18.477l-1.994-.156zm-4.835 17.523c-.485.728-1.198 1.646-2.07 2.841-.852 1.168-1.812 2.543-2.712 4.085-1.795 3.077-3.386 6.881-3.386 11.129h2c0-3.752 1.409-7.198 3.114-10.121.85-1.458 1.765-2.77 2.6-3.915.816-1.118 1.603-2.137 2.118-2.909l-1.664-1.11zM116.577 195.078a1 1 0 00-1.994-.156l1.994.156zm-7.628 52.21l-.878.478.013.024.014.024.851-.526zm5.634-52.366c-.776 9.903-2.951 14.697-4.835 17.523l1.664 1.11c2.116-3.174 4.368-8.317 5.165-18.477l-1.994-.156zm-4.835 17.523c-.485.728-1.198 1.646-2.07 2.841-.852 1.168-1.812 2.543-2.712 4.085-1.795 3.077-3.386 6.881-3.386 11.129h2c0-3.752 1.409-7.198 3.114-10.121.85-1.458 1.765-2.77 2.6-3.915.816-1.118 1.603-2.137 2.118-2.909l-1.664-1.11zM101.58 230.5c0 2.571.852 5.441 2.06 8.349 1.214 2.92 2.83 5.972 4.431 8.917l1.757-.955c-1.602-2.946-3.171-5.916-4.341-8.73-1.175-2.828-1.907-5.407-1.907-7.581h-2zm6.518 17.314c-.051-.084-.057-.137-.05-.105.005.023.012.071.019.153.012.168.013.377.013.638h2c0-.239.001-.53-.019-.79-.016-.208-.054-.613-.261-.947l-1.702 1.051zM123.577 195.078a1 1 0 00-1.994-.156l1.994.156zm-7.628 52.21l-.878.478.013.024.014.024.851-.526zm5.634-52.366c-.776 9.903-2.951 14.697-4.835 17.523l1.664 1.11c2.116-3.174 4.368-8.317 5.165-18.477l-1.994-.156zm-4.835 17.523c-.485.728-1.198 1.646-2.07 2.841-.852 1.168-1.812 2.543-2.712 4.085-1.795 3.077-3.386 6.881-3.386 11.129h2c0-3.752 1.409-7.198 3.114-10.121.85-1.458 1.765-2.77 2.6-3.915.816-1.118 1.603-2.137 2.118-2.909l-1.664-1.11zM108.58 230.5c0 2.571.852 5.441 2.06 8.349 1.214 2.92 2.83 5.972 4.431 8.917l1.757-.955c-1.602-2.946-3.171-5.916-4.341-8.73-1.175-2.828-1.907-5.407-1.907-7.581h-2zm6.518 17.314c-.051-.084-.057-.137-.05-.105.005.023.012.071.019.153.012.168.013.377.013.638h2c0-.239.001-.53-.019-.79-.016-.208-.054-.613-.261-.947l-1.702 1.051zM130.577 195.078a1 1 0 00-1.994-.156l1.994.156zm-7.628 52.21l-.878.478.013.024.014.024.851-.526zm5.634-52.366c-.776 9.903-2.951 14.697-4.835 17.523l1.664 1.11c2.116-3.174 4.368-8.317 5.165-18.477l-1.994-.156zm-4.835 17.523c-.485.728-1.198 1.646-2.07 2.841-.852 1.168-1.812 2.543-2.712 4.085-1.795 3.077-3.386 6.881-3.386 11.129h2c0-3.752 1.409-7.198 3.114-10.121.85-1.458 1.765-2.77 2.6-3.915.816-1.118 1.603-2.137 2.118-2.909l-1.664-1.11zM115.58 230.5c0 2.571.852 5.441 2.06 8.349 1.214 2.92 2.83 5.972 4.431 8.917l1.757-.955c-1.602-2.946-3.171-5.916-4.341-8.73-1.175-2.828-1.907-5.407-1.907-7.581h-2zm6.518 17.314c-.051-.084-.057-.137-.05-.105.005.023.012.071.019.153.012.168.013.377.013.638h2c0-.239.001-.53-.019-.79-.016-.208-.054-.613-.261-.947l-1.702 1.051zM136.577 195.078a1 1 0 00-1.994-.156l1.994.156zm-7.628 52.21l-.878.478.013.024.014.024.851-.526zm5.634-52.366c-.776 9.903-2.951 14.697-4.835 17.523l1.664 1.11c2.116-3.174 4.368-8.317 5.165-18.477l-1.994-.156zm-4.835 17.523c-.485.728-1.198 1.646-2.07 2.841-.852 1.168-1.812 2.543-2.712 4.085-1.795 3.077-3.386 6.881-3.386 11.129h2c0-3.752 1.409-7.198 3.114-10.121.85-1.458 1.765-2.77 2.6-3.915.816-1.118 1.603-2.137 2.118-2.909l-1.664-1.11zM121.58 230.5c0 2.571.852 5.441 2.06 8.349 1.214 2.92 2.83 5.972 4.431 8.917l1.757-.955c-1.602-2.946-3.171-5.916-4.341-8.73-1.175-2.828-1.907-5.407-1.907-7.581h-2zm6.518 17.314c-.051-.084-.057-.137-.05-.105.005.023.012.071.019.153.012.168.013.377.013.638h2c0-.239.001-.53-.019-.79-.016-.208-.054-.613-.261-.947l-1.702 1.051zM402.672 141.922a1 1 0 101.674 1.095l-1.674-1.095zm1.693-28.765a1 1 0 10-1.712-1.033l1.712 1.033zm-.498 18.086c0-.388.115-.88.337-1.494.22-.61.512-1.25.821-1.951.3-.68.614-1.413.83-2.131.214-.712.357-1.495.247-2.263l-1.979.283c.05.355-.007.815-.184 1.406-.175.585-.442 1.215-.744 1.898-.292.662-.622 1.385-.872 2.078-.249.689-.456 1.44-.456 2.174h2zm2.235-7.839c-.186-1.307-.659-2.238-1.126-3.046-.477-.822-.881-1.423-1.16-2.26l-1.897.632c.362 1.087.92 1.929 1.326 2.631.414.716.743 1.388.878 2.326l1.979-.283zm-2.286-5.306a5.935 5.935 0 01.549-4.941l-1.712-1.033a7.933 7.933 0 00-.734 6.606l1.897-.632zm.53 24.919c.669-1.024 1.128-2.017 1.366-3.087.238-1.071.243-2.165.07-3.375l-1.98.282c.148 1.035.131 1.878-.042 2.659-.174.78-.516 1.551-1.088 2.426l1.674 1.095zm1.436-6.462c-.191-1.336-.775-2.301-1.197-3.067-.427-.777-.718-1.39-.718-2.245h-2c0 1.391.511 2.382.966 3.209.461.837.839 1.476.969 2.385l1.98-.282zM410.37 141.922a1 1 0 101.673 1.095l-1.673-1.095zm1.693-28.765a1 1 0 00-1.713-1.033l1.713 1.033zm-.498 18.086c0-.388.114-.88.336-1.494.221-.61.513-1.25.822-1.951.3-.68.614-1.413.829-2.131.214-.712.358-1.495.248-2.263l-1.98.283c.051.355-.006.815-.183 1.406-.176.585-.443 1.215-.744 1.898-.292.662-.622 1.385-.873 2.078-.249.689-.455 1.44-.455 2.174h2zm2.235-7.839c-.187-1.307-.659-2.238-1.127-3.046-.476-.822-.88-1.423-1.159-2.26l-1.898.632c.363 1.087.921 1.929 1.326 2.631.415.716.744 1.388.878 2.326l1.98-.283zm-2.286-5.306a5.935 5.935 0 01.549-4.941l-1.713-1.033a7.936 7.936 0 00-.734 6.606l1.898-.632zm.529 24.919c.67-1.024 1.129-2.017 1.367-3.087.238-1.071.242-2.165.069-3.375l-1.98.282c.148 1.035.132 1.878-.041 2.659-.174.78-.517 1.551-1.088 2.426l1.673 1.095zm1.436-6.462c-.19-1.336-.775-2.301-1.196-3.067-.427-.777-.718-1.39-.718-2.245h-2c0 1.391.511 2.382.966 3.209.46.837.839 1.476.968 2.385l1.98-.282zM391 107.83l-.999-.05-.052 1.05H391v-1zm25.98 0v1h1.078l-.081-1.075-.997.075zm-22.006 34.092a1 1 0 101.674 1.095l-1.674-1.095zm1.693-28.765a1 1 0 10-1.712-1.033l1.712 1.033zM391 108.829h25.98v-2H391v2zm25.98-1l.997-.075v-.002l-.001-.003v-.011a.79.79 0 01-.003-.035l-.013-.124a13.938 13.938 0 00-.055-.442 18.179 18.179 0 00-.292-1.54c-.295-1.262-.823-2.958-1.762-4.664-1.897-3.45-5.483-6.933-12.022-6.933v2c5.65 0 8.639 2.932 10.27 5.897.826 1.501 1.299 3.012 1.566 4.155.133.57.213 1.042.26 1.368a11.746 11.746 0 01.056.463l.001.02.001.003c0-.001 0-.002.997-.077zM403.829 94c-6.543 0-10.053 3.488-11.87 6.95-.897 1.71-1.384 3.407-1.647 4.67a18.233 18.233 0 00-.254 1.541 14.219 14.219 0 00-.054.567l-.002.035v.01l-.001.004v.001c0 .001 0 .002.999.051l.999.051s0 .001 0 0v-.002l.001-.02.007-.091c.007-.083.018-.209.037-.372.039-.326.107-.797.226-1.366.238-1.142.673-2.651 1.46-4.15 1.55-2.953 4.455-5.879 10.099-5.879v-2zm-7.659 37.243c0-.388.114-.88.336-1.494.221-.61.512-1.25.821-1.951.3-.68.615-1.413.83-2.131.214-.712.357-1.495.248-2.263l-1.98.283c.05.355-.006.815-.184 1.405-.175.586-.442 1.215-.743 1.899-.293.662-.622 1.385-.873 2.078-.249.689-.455 1.44-.455 2.174h2zm2.235-7.839c-.187-1.307-.66-2.238-1.127-3.046-.476-.822-.88-1.423-1.16-2.26l-1.897.632c.362 1.087.92 1.929 1.326 2.63.415.716.744 1.389.878 2.327l1.98-.283zm-2.287-5.306a5.935 5.935 0 01.549-4.941l-1.712-1.033a7.933 7.933 0 00-.734 6.606l1.897-.632zm.53 24.919c.669-1.024 1.129-2.017 1.367-3.087.237-1.071.242-2.165.069-3.376l-1.98.283c.148 1.035.132 1.878-.042 2.659-.173.78-.516 1.551-1.088 2.426l1.674 1.095zm1.436-6.463c-.191-1.336-.775-2.3-1.196-3.066-.428-.778-.718-1.39-.718-2.245h-2c0 1.391.511 2.382.965 3.209.461.837.839 1.476.969 2.385l1.98-.283zM17.08 204.5a1 1 0 00-2 0h2zm-15-7.47a1 1 0 10-2-.06l2 .06zm28 25.47a1 1 0 00-2 0h2zm-15-18V231h2v-26.5h-2zm0 26.5v17h2v-17h-2zm1 0l.643-.766-.002-.001-.006-.006-.026-.022-.104-.087a161.615 161.615 0 01-1.826-1.568 199.75 199.75 0 01-4.438-3.972c-1.648-1.524-3.332-3.146-4.69-4.597-.68-.726-1.27-1.4-1.73-1.99-.471-.603-.766-1.068-.902-1.385l-1.838.788c.24.558.663 1.187 1.163 1.828.51.654 1.143 1.375 1.846 2.126 1.407 1.501 3.13 3.16 4.794 4.699a200.575 200.575 0 005.927 5.256l.402.342.107.089.027.024a.03.03 0 01.007.006l.002.001v.001l.644-.766zM3 216.606c-.14-.324-.28-.868-.407-1.633a33.016 33.016 0 01-.305-2.655c-.162-2.007-.24-4.373-.27-6.644a217.427 217.427 0 01.06-8.598l.001-.035v-.008-.002-.001L1.08 197l-1-.03v.012l-.001.037a103.75 103.75 0 00-.017.673 219.378 219.378 0 00-.044 8.009c.031 2.291.11 4.707.276 6.778.083 1.035.19 1.996.326 2.82.133.807.305 1.544.54 2.095l1.84-.788zm25.08 5.894V248h2v-25.5h-2zM1084.71 63.722a1.005 1.005 0 00-1.41.15c-.34.43-.28 1.059.15 1.406l1.26-1.556zm-.63.778l-.63.777s0 .003.01.007c.01.007.02.02.04.037.04.035.11.092.19.17.17.156.42.397.71.723.6.653 1.4 1.646 2.21 2.987 1.6 2.676 3.2 6.746 3.12 12.286l2 .026c.08-5.96-1.64-10.39-3.41-13.339a20.836 20.836 0 00-2.44-3.31 13.492 13.492 0 00-1.07-1.056c-.03-.025-.05-.045-.07-.06-.01-.006-.01-.012-.02-.017 0-.002-.01-.004-.01-.005v-.002-.001l-.63.777zm5.65 16.987c-.03 2.65-.92 5.113-2.3 7.735-1.4 2.676-3.19 5.307-5.07 8.524-3.7 6.349-7.29 14.29-6.78 26.297l2-.086c-.49-11.493 2.92-19.052 6.51-25.203 1.77-3.033 3.69-5.902 5.11-8.601 1.45-2.753 2.49-5.54 2.53-8.64l-2-.026zm-13.65 125.055c.51 12.188 3.44 18.591 6.5 24.012 3.04 5.37 6.04 9.556 7.01 17.566l1.98-.24c-1.03-8.49-4.28-13.054-7.24-18.309-2.94-5.204-5.76-11.301-6.25-23.113l-2 .084zm-.5-82.499c.51 11.991 4.14 18.29 7.61 23.627 3.44 5.279 6.54 9.417 6.54 17.33h2c0-8.587-3.46-13.199-6.86-18.42-3.36-5.163-6.8-11.114-7.29-22.623l-2 .086zM1089.73 165c0 7.89-3.45 12.002-7.03 17.383-1.79 2.685-3.58 5.663-4.86 9.514-1.27 3.854-2.01 8.538-1.76 14.645l2-.084c-.25-5.893.47-10.334 1.66-13.933 1.19-3.602 2.87-6.406 4.62-9.033 3.5-5.244 7.37-9.882 7.37-18.492h-2zM1091.71 63.722a1.005 1.005 0 00-1.41.15c-.34.43-.28 1.059.15 1.406l1.26-1.556zm-.63.778l-.63.777s0 .003.01.007c.01.007.02.02.04.037.04.035.11.092.19.17.17.156.42.397.71.723.6.653 1.4 1.646 2.21 2.987 1.6 2.676 3.2 6.746 3.12 12.286l2 .026c.08-5.96-1.64-10.39-3.41-13.339a20.836 20.836 0 00-2.44-3.31 13.492 13.492 0 00-1.07-1.056c-.03-.025-.05-.045-.07-.06-.01-.006-.01-.012-.02-.017 0-.002-.01-.004-.01-.005v-.002-.001l-.63.777zm5.65 16.987c-.03 2.65-.92 5.113-2.3 7.735-1.4 2.676-3.19 5.307-5.07 8.524-3.7 6.349-7.29 14.29-6.78 26.297l2-.086c-.49-11.493 2.92-19.052 6.51-25.203 1.77-3.033 3.69-5.902 5.11-8.601 1.45-2.753 2.49-5.54 2.53-8.64l-2-.026zm-13.65 125.055c.51 12.188 3.44 18.591 6.5 24.012 3.04 5.37 6.04 9.556 7.01 17.566l1.98-.24c-1.03-8.49-4.28-13.054-7.24-18.309-2.94-5.204-5.76-11.301-6.25-23.113l-2 .084zm-.5-82.499c.51 11.991 4.14 18.29 7.61 23.627 3.44 5.279 6.54 9.417 6.54 17.33h2c0-8.587-3.46-13.199-6.86-18.42-3.36-5.163-6.8-11.114-7.29-22.623l-2 .086zM1096.73 165c0 7.89-3.45 12.002-7.03 17.383-1.79 2.685-3.58 5.663-4.86 9.514-1.27 3.854-2.01 8.538-1.76 14.645l2-.084c-.25-5.893.47-10.334 1.66-13.933 1.19-3.602 2.87-6.406 4.62-9.033 3.5-5.244 7.37-9.882 7.37-18.492h-2zM1098.71 63.722a1.005 1.005 0 00-1.41.15c-.34.43-.28 1.059.15 1.406l1.26-1.556zm-.63.778l-.63.777s0 .003.01.007c.01.007.02.02.04.037.04.035.11.092.19.17.17.156.42.397.71.723.6.653 1.4 1.646 2.21 2.987 1.6 2.676 3.2 6.746 3.12 12.286l2 .026c.08-5.96-1.64-10.39-3.41-13.339a20.836 20.836 0 00-2.44-3.31 13.492 13.492 0 00-1.07-1.056c-.03-.025-.05-.045-.07-.06-.01-.006-.01-.012-.02-.017 0-.002-.01-.004-.01-.005v-.002-.001l-.63.777zm5.65 16.987c-.03 2.65-.92 5.113-2.3 7.735-1.4 2.676-3.19 5.307-5.07 8.524-3.7 6.349-7.29 14.29-6.78 26.297l2-.086c-.49-11.493 2.92-19.052 6.51-25.203 1.77-3.033 3.69-5.902 5.11-8.601 1.45-2.753 2.49-5.54 2.53-8.64l-2-.026zm-13.65 125.055c.51 12.188 3.44 18.591 6.5 24.012 3.04 5.37 6.04 9.556 7.01 17.566l1.98-.24c-1.03-8.49-4.28-13.054-7.24-18.309-2.94-5.204-5.76-11.301-6.25-23.113l-2 .084zm-.5-82.499c.51 11.991 4.14 18.29 7.61 23.627 3.44 5.279 6.54 9.417 6.54 17.33h2c0-8.587-3.46-13.199-6.86-18.42-3.36-5.163-6.8-11.114-7.29-22.623l-2 .086zM1103.73 165c0 7.89-3.45 12.002-7.03 17.383-1.79 2.685-3.58 5.663-4.86 9.514-1.27 3.854-2.01 8.538-1.76 14.645l2-.084c-.25-5.893.47-10.334 1.66-13.933 1.19-3.602 2.87-6.406 4.62-9.033 3.5-5.244 7.37-9.882 7.37-18.492h-2zM1106.71 63.722a1.005 1.005 0 00-1.41.15c-.34.43-.28 1.059.15 1.406l1.26-1.556zm-.63.778l-.63.777s0 .003.01.007c.01.007.02.02.04.037.04.035.11.092.19.17.17.156.42.397.71.723.6.653 1.4 1.646 2.21 2.987 1.6 2.676 3.2 6.746 3.12 12.286l2 .026c.08-5.96-1.64-10.39-3.41-13.339a20.836 20.836 0 00-2.44-3.31 13.492 13.492 0 00-1.07-1.056c-.03-.025-.05-.045-.07-.06-.01-.006-.01-.012-.02-.017 0-.002-.01-.004-.01-.005v-.002-.001l-.63.777zm5.65 16.987c-.03 2.65-.92 5.113-2.3 7.735-1.4 2.676-3.19 5.307-5.07 8.524-3.7 6.349-7.29 14.29-6.78 26.297l2-.086c-.49-11.493 2.92-19.052 6.51-25.203 1.77-3.033 3.69-5.902 5.11-8.601 1.45-2.753 2.49-5.54 2.53-8.64l-2-.026zm-13.65 125.055c.51 12.188 3.44 18.591 6.5 24.012 3.04 5.37 6.04 9.556 7.01 17.566l1.98-.24c-1.03-8.49-4.28-13.054-7.24-18.309-2.94-5.204-5.76-11.301-6.25-23.113l-2 .084zm-.5-82.499c.51 11.991 4.14 18.29 7.61 23.627 3.44 5.279 6.54 9.417 6.54 17.33h2c0-8.587-3.46-13.199-6.86-18.42-3.36-5.163-6.8-11.114-7.29-22.623l-2 .086zM1111.73 165c0 7.89-3.45 12.002-7.03 17.383-1.79 2.685-3.58 5.663-4.86 9.514-1.27 3.854-2.01 8.538-1.76 14.645l2-.084c-.25-5.893.47-10.334 1.66-13.933 1.19-3.602 2.87-6.406 4.62-9.033 3.5-5.244 7.37-9.882 7.37-18.492h-2zM1114.71 63.722a1.005 1.005 0 00-1.41.15c-.34.43-.28 1.059.15 1.406l1.26-1.556zm-.63.778l-.63.777s0 .003.01.007c.01.007.02.02.04.037.04.035.11.092.19.17.17.156.42.397.71.723.6.653 1.4 1.646 2.21 2.987 1.6 2.676 3.2 6.746 3.12 12.286l2 .026c.08-5.96-1.64-10.39-3.41-13.339a20.836 20.836 0 00-2.44-3.31 13.492 13.492 0 00-1.07-1.056c-.03-.025-.05-.045-.07-.06-.01-.006-.01-.012-.02-.017 0-.002-.01-.004-.01-.005v-.002-.001l-.63.777zm5.65 16.987c-.03 2.65-.92 5.113-2.3 7.735-1.4 2.676-3.19 5.307-5.07 8.524-3.7 6.349-7.29 14.29-6.78 26.297l2-.086c-.49-11.493 2.92-19.052 6.51-25.203 1.77-3.033 3.69-5.902 5.11-8.601 1.45-2.753 2.49-5.54 2.53-8.64l-2-.026zm-13.65 125.055c.51 12.188 3.44 18.591 6.5 24.012 3.04 5.37 6.04 9.556 7.01 17.566l1.98-.24c-1.03-8.49-4.28-13.054-7.24-18.309-2.94-5.204-5.76-11.301-6.25-23.113l-2 .084zm-.5-82.499c.51 11.991 4.14 18.29 7.61 23.627 3.44 5.279 6.54 9.417 6.54 17.33h2c0-8.587-3.46-13.199-6.86-18.42-3.36-5.163-6.8-11.114-7.29-22.623l-2 .086zM1119.73 165c0 7.89-3.45 12.002-7.03 17.383-1.79 2.685-3.58 5.663-4.86 9.514-1.27 3.854-2.01 8.538-1.76 14.645l2-.084c-.25-5.893.47-10.334 1.66-13.933 1.19-3.602 2.87-6.406 4.62-9.033 3.5-5.244 7.37-9.882 7.37-18.492h-2z"
              fill="#0069FF" fill-rule="nonzero"/>
        <rect stroke="#0069FF" stroke-width="2" x="131" y="102" width="12" height="35" rx="6"/>
        <rect stroke="#0069FF" stroke-width="2" x="855" y="40" width="12" height="35" rx="6"/>
        <rect stroke="#0069FF" stroke-width="2" x="49.58" y="11" width="12" height="25" rx="6"/>
        <path d="M807 140c0 3.25-2.844 6-6.5 6s-6.5-2.75-6.5-6 2.844-6 6.5-6 6.5 2.75 6.5 6z" stroke="#0069FF"
              stroke-width="2"/>
        <circle stroke="#0069FF" stroke-width="2" cx="698" cy="94" r="6"/>
        <circle stroke="#0069FF" stroke-width="2" cx="868" cy="20" r="6"/>
        <path d="M831 248.673v-11.5l13-5m0 0c-.333-5.004 0-15.5 0-15.5m0 15.5s0 10 29 10 29.5-10 29.5-10m0 0v-15.5m0 15.5l13 5 1 11.5m-14-32l12-5.5m-12 5.5s-.421-4.42-8.5-7.524m-50 7.524l-12-5.5m12 5.5s.225-4.733 9-7.844m10.5-11.156l2.5 8.737m0 0a97.496 97.496 0 017-.237c2.952 0 5.609.113 8 .315m-15-.078c-5.668.41-9.876 1.311-13 2.419m30-11.156l-2 8.815m0 0c5.717.483 9.916 1.476 13 2.661m0 0s22.5-16.476 13.5-29.476-22.5-3-22.5-3l19.5 19M894 209.149s3.5-3.476 6-6.476 4.5-7 4.5-7m0 0s-9.5 2.5-13-1.5-2-12.75-2-12.75M853 208.829s-23.5-20.156-12.5-30.156 21-2 21-2l-18 19m9.5 13.156s-4-4.18-5.5-6.418c-1.5-2.238-4-6.738-4-6.738m0 0s4.5 3.5 10.5-.5 3.125-13.75 3.125-13.75"
              stroke="#0069FF" stroke-width="2"/>
    </g>
</svg>
