<svg viewBox="0 0 1297 259" xmlns="http://www.w3.org/2000/svg">
    <g transform="translate(-12 -8)" fill="none" fill-rule="evenodd">
        <path d="M1205.66 107.453c-.3.462-.17 1.082.29 1.384.46.302 1.08.173 1.39-.29l-1.68-1.094zm1.7-45.436c.28-.473.13-1.088-.34-1.373a1.008 1.008 0 00-1.38.34l1.72 1.033zm-.86 28.483c0-.702.2-1.541.56-2.52.35-.974.82-1.995 1.29-3.076.47-1.061.95-2.175 1.27-3.257.32-1.077.52-2.207.37-3.288l-1.98.282c.1.669-.02 1.477-.3 2.431-.29.95-.72 1.96-1.19 3.024-.46 1.043-.96 2.148-1.34 3.205-.38 1.053-.68 2.15-.68 3.199h2zm3.49-12.141c-.28-1.935-.97-3.314-1.69-4.547-.72-1.249-1.39-2.253-1.85-3.628l-1.9.632c.54 1.625 1.37 2.87 2.02 3.998.66 1.141 1.22 2.262 1.44 3.827l1.98-.282zm-3.54-8.175a9.775 9.775 0 01.91-8.167l-1.72-1.034a11.84 11.84 0 00-1.09 9.833l1.9-.632zm.89 38.363c1.01-1.554 1.7-3.04 2.05-4.627.35-1.588.36-3.223.1-5.061l-1.98.282c.24 1.662.22 3.047-.07 4.345-.29 1.298-.86 2.562-1.78 3.967l1.68 1.094zm2.15-9.688c-.28-1.964-1.13-3.377-1.8-4.59-.68-1.226-1.19-2.287-1.19-3.769h-2c0 2.018.74 3.457 1.44 4.732.7 1.286 1.35 2.373 1.57 3.91l1.98-.283zM1217.66 107.453c-.3.462-.17 1.082.29 1.384.46.302 1.08.173 1.39-.29l-1.68-1.094zm1.7-45.436c.28-.473.13-1.088-.34-1.373a1.008 1.008 0 00-1.38.34l1.72 1.033zm-.86 28.483c0-.702.2-1.541.56-2.52.35-.974.82-1.995 1.29-3.076.47-1.061.95-2.175 1.27-3.257.32-1.077.52-2.207.37-3.288l-1.98.282c.1.669-.02 1.477-.3 2.431-.29.95-.72 1.96-1.19 3.024-.46 1.043-.96 2.148-1.34 3.205-.38 1.053-.68 2.15-.68 3.199h2zm3.49-12.141c-.28-1.935-.97-3.314-1.69-4.547-.72-1.249-1.39-2.253-1.85-3.628l-1.9.632c.54 1.625 1.37 2.87 2.02 3.998.66 1.141 1.22 2.262 1.44 3.827l1.98-.282zm-3.54-8.175a9.775 9.775 0 01.91-8.167l-1.72-1.034a11.84 11.84 0 00-1.09 9.833l1.9-.632zm.89 38.363c1.01-1.554 1.7-3.04 2.05-4.627.35-1.588.36-3.223.1-5.061l-1.98.282c.24 1.662.22 3.047-.07 4.345-.29 1.298-.86 2.562-1.78 3.967l1.68 1.094zm2.15-9.688c-.28-1.964-1.13-3.377-1.8-4.59-.68-1.226-1.19-2.287-1.19-3.769h-2c0 2.018.74 3.457 1.44 4.732.7 1.286 1.35 2.373 1.57 3.91l1.98-.283zM1187 54l-1-.05-.05 1.05h1.05v-1zm40.5 0v1h1.08l-.08-1.075-1 .075zm-33.84 53.453c-.3.462-.17 1.082.29 1.384.46.302 1.08.173 1.39-.29l-1.68-1.094zm1.7-45.436c.28-.473.13-1.088-.34-1.373a1.008 1.008 0 00-1.38.34l1.72 1.033zM1187 55h40.5v-2H1187v2zm40.5-1l1-.076v-.002-.004-.015c-.01-.012-.01-.029-.01-.05 0-.043-.01-.105-.02-.184-.01-.157-.04-.384-.08-.67-.08-.571-.22-1.382-.45-2.351-.45-1.935-1.26-4.528-2.69-7.13C1222.37 38.275 1216.94 33 1207 33v2c9.06 0 13.88 4.725 16.5 9.482 1.32 2.398 2.07 4.805 2.49 6.62.22.906.34 1.658.42 2.18.04.261.06.464.07.6.01.067.02.118.02.15v.043l1-.075zM1207 33c-9.95 0-15.25 5.281-18.01 10.535-1.37 2.606-2.11 5.2-2.52 7.136-.2.97-.32 1.78-.38 2.353-.04.286-.06.512-.07.67-.01.079-.01.14-.01.183-.01.022-.01.039-.01.051V53.95l1 .051 1 .05v-.007-.035c0-.033.01-.084.01-.151.01-.136.03-.338.06-.6.06-.521.17-1.273.36-2.178.38-1.814 1.07-4.22 2.33-6.614 2.49-4.746 7.19-9.465 16.24-9.465v-2zm-12.5 57.5c0-.702.2-1.541.56-2.52.35-.974.82-1.995 1.29-3.076.47-1.061.95-2.175 1.27-3.257.32-1.077.52-2.207.37-3.288l-1.98.282c.1.669-.02 1.477-.3 2.431-.29.95-.72 1.96-1.19 3.024-.46 1.043-.96 2.148-1.34 3.205-.38 1.053-.68 2.15-.68 3.199h2zm3.49-12.141c-.28-1.935-.97-3.314-1.69-4.547-.72-1.249-1.39-2.253-1.85-3.628l-1.9.632c.54 1.625 1.37 2.87 2.02 3.998.66 1.141 1.22 2.262 1.44 3.827l1.98-.282zm-3.54-8.175a9.775 9.775 0 01.91-8.167l-1.72-1.034a11.84 11.84 0 00-1.09 9.833l1.9-.632zm.89 38.363c1.01-1.554 1.7-3.04 2.05-4.627.35-1.588.36-3.223.1-5.061l-1.98.282c.24 1.662.22 3.047-.07 4.345-.29 1.298-.86 2.562-1.78 3.967l1.68 1.094zm2.15-9.688c-.28-1.964-1.13-3.377-1.8-4.59-.68-1.226-1.19-2.287-1.19-3.769h-2c0 2.018.74 3.457 1.44 4.732.7 1.286 1.35 2.373 1.57 3.91l1.98-.283zM1289.57 66.922c-.3.462-.17 1.082.29 1.384a.995.995 0 001.38-.29l-1.67-1.094zm1.69-35.677a.99.99 0 00-.34-1.373.998.998 0 00-1.37.34l1.71 1.033zm-.64 22.397c0-.518.15-1.154.43-1.92.27-.76.63-1.558 1.01-2.417.37-.838.75-1.729 1.02-2.598.25-.864.42-1.79.29-2.688l-1.98.283c.07.485-.01 1.09-.23 1.83-.22.736-.56 1.524-.93 2.366-.36.82-.76 1.701-1.07 2.545-.3.84-.54 1.734-.54 2.599h2zm2.75-9.623c-.22-1.567-.79-2.684-1.36-3.668-.57-1-1.09-1.767-1.44-2.828l-1.9.633c.44 1.31 1.1 2.32 1.61 3.197.52.892.94 1.75 1.11 2.949l1.98-.283zm-2.8-6.496a7.53 7.53 0 01.69-6.278l-1.71-1.033a9.56 9.56 0 00-.88 7.944l1.9-.633zm.67 30.493c.82-1.243 1.37-2.44 1.66-3.725.28-1.285.29-2.603.08-4.074l-1.98.282c.18 1.295.16 2.363-.06 3.358-.22.995-.65 1.97-1.37 3.065l1.67 1.094zm1.74-7.8c-.23-1.596-.93-2.746-1.45-3.698-.53-.963-.91-1.761-.91-2.876h-2c0 1.65.6 2.828 1.16 3.84.56 1.023 1.05 1.848 1.22 3.017l1.98-.282zM1299.05 66.922c-.3.462-.17 1.082.29 1.384.46.302 1.08.173 1.39-.29l-1.68-1.094zm1.7-35.677c.28-.473.13-1.087-.34-1.373a1.008 1.008 0 00-1.38.34l1.72 1.033zm-.65 22.397c0-.518.15-1.154.43-1.92.27-.76.64-1.558 1.01-2.417.37-.838.76-1.729 1.02-2.598.26-.864.42-1.79.29-2.688l-1.98.283c.07.485-.01 1.09-.23 1.83-.22.736-.55 1.524-.93 2.366-.36.82-.76 1.701-1.06 2.545-.31.84-.55 1.734-.55 2.599h2zm2.75-9.623c-.22-1.567-.79-2.684-1.35-3.668-.58-1-1.1-1.767-1.45-2.828l-1.9.633c.44 1.31 1.11 2.32 1.61 3.197.52.892.94 1.75 1.11 2.949l1.98-.283zm-2.8-6.496c-.7-2.092-.44-4.39.7-6.278l-1.72-1.033a9.56 9.56 0 00-.88 7.944l1.9-.633zm.68 30.493c.81-1.243 1.36-2.44 1.65-3.725.28-1.285.29-2.603.08-4.074l-1.98.282c.18 1.295.17 2.363-.06 3.358-.22.995-.65 1.97-1.37 3.065l1.68 1.094zm1.73-7.8c-.23-1.596-.92-2.746-1.45-3.698-.53-.963-.91-1.761-.91-2.876h-2c0 1.65.6 2.828 1.16 3.84.56 1.023 1.05 1.848 1.22 3.017l1.98-.282zM1275 24.802l-1-.05-.05 1.05h1.05v-1zm32 0v1h1.08l-.08-1.074-1 .074zm-26.91 42.12c-.3.462-.17 1.082.29 1.384a.995.995 0 001.38-.29l-1.67-1.094zm1.69-35.677a.99.99 0 00-.34-1.373.998.998 0 00-1.37.34l1.71 1.033zm-6.78-5.443h32v-2h-32v2zm32-1l1-.075v-.002-.004-.012c-.01-.01-.01-.024-.01-.042 0-.035-.01-.085-.01-.148-.02-.127-.04-.308-.07-.537-.07-.457-.18-1.103-.36-1.876-.36-1.542-1-3.609-2.14-5.687C1303.1 12.226 1298.75 8 1290.8 8v2c7.06 0 10.82 3.675 12.85 7.383 1.03 1.873 1.62 3.756 1.96 5.178.16.708.26 1.297.32 1.704.03.203.05.361.06.466 0 .052.01.091.01.116v.031l1-.076zM1290.8 8c-7.95 0-12.21 4.232-14.41 8.436-1.1 2.081-1.69 4.151-2.01 5.693-.16.774-.26 1.42-.31 1.877-.03.23-.04.41-.05.538-.01.063-.01.113-.02.148V24.751c0 .001 0 .002 1 .051l1 .051v-.005-.026c0-.024 0-.063.01-.116.01-.104.02-.262.05-.465.04-.408.13-.996.28-1.704.29-1.42.84-3.301 1.82-5.17 1.94-3.697 5.59-7.367 12.64-7.367V8zm-9.66 45.642c0-.518.15-1.154.42-1.92.28-.76.64-1.558 1.02-2.417.37-.838.75-1.729 1.01-2.598.26-.864.43-1.79.3-2.688l-1.98.283c.07.485-.01 1.09-.23 1.83-.22.736-.56 1.524-.93 2.366-.36.82-.76 1.701-1.07 2.545-.3.84-.54 1.734-.54 2.599h2zm2.75-9.623c-.22-1.567-.79-2.684-1.36-3.668-.58-1-1.09-1.767-1.45-2.828l-1.89.633c.43 1.31 1.1 2.32 1.61 3.197.52.892.94 1.75 1.11 2.949l1.98-.283zm-2.81-6.496a7.569 7.569 0 01.7-6.278l-1.71-1.033a9.523 9.523 0 00-.88 7.944l1.89-.633zm.68 30.493c.82-1.243 1.37-2.44 1.65-3.725.29-1.285.3-2.603.09-4.074l-1.98.282c.18 1.295.16 2.363-.06 3.358-.22.995-.66 1.97-1.37 3.065l1.67 1.094zm1.74-7.8c-.23-1.596-.93-2.746-1.45-3.698-.53-.963-.91-1.761-.91-2.876h-2c0 1.65.6 2.828 1.16 3.84.56 1.023 1.05 1.848 1.22 3.017l1.98-.282zM209 63l.526-.85-1.394 1.346L209 63zm68 9.5l.496.868 1.214-.693-1.048-.925-.662.75zM209 83l-.894-.447 1.475 1.26L209 83zm39-2.5v-1h-.004l.004 1zm0-15.5l-.026 1H248v-1zm-39-2l-.526.85.001.001.005.003a.274.274 0 00.021.013l.085.053.326.208c.283.18.688.442 1.174.767.974.649 2.268 1.542 3.558 2.525 1.296.988 2.561 2.045 3.492 3.02.466.489.825.933 1.062 1.316.247.4.302.64.302.744h2c0-.646-.274-1.266-.6-1.795-.338-.546-.799-1.103-1.317-1.645-1.038-1.088-2.398-2.218-3.727-3.23a73.048 73.048 0 00-3.661-2.6 74.148 74.148 0 00-1.545-1.003l-.091-.057a.499.499 0 00-.024-.015l-.006-.004h-.002v-.001L209 63zm9.5 9.5c0 .111-.06.371-.315.809-.243.416-.608.902-1.078 1.439-.938 1.072-2.209 2.255-3.508 3.368a85.574 85.574 0 01-5.067 3.99l-.086.06a.396.396 0 01-.021.016l-.005.003-.001.001L209 83l.582.814.002-.002a.045.045 0 01.006-.005l.024-.017.09-.065a90.917 90.917 0 001.543-1.148c.993-.757 2.322-1.801 3.654-2.943 1.326-1.137 2.68-2.391 3.711-3.57.515-.587.969-1.18 1.301-1.748.319-.547.587-1.177.587-1.816h-2zM209 83l.895.447v-.002a1.342 1.342 0 01.012-.023l.034-.069.129-.262a96.809 96.809 0 001.848-4.006 50.103 50.103 0 001.404-3.567c.373-1.097.678-2.209.678-3.018h-2c0 .44-.195 1.266-.572 2.373-.362 1.066-.851 2.273-1.346 3.418a94.136 94.136 0 01-1.808 3.921l-.125.254a2.586 2.586 0 00-.041.082l-.002.004L209 83zm5-10.5c0-.82-.311-1.876-.688-2.888-.39-1.05-.905-2.19-1.412-3.236a71.163 71.163 0 00-1.855-3.557l-.129-.232-.035-.06a1.149 1.149 0 01-.012-.021v-.002h-.001L209 63l-.868.496.002.004.008.014.032.057.124.221a71.213 71.213 0 011.802 3.456c.493 1.018.978 2.096 1.338 3.062.373 1.003.562 1.76.562 2.19h2zm4.98.854c6.758 4.118 14.012 6.15 19.555 7.155 2.776.503 5.133.75 6.8.873a47.537 47.537 0 002.477.117h.14l.037.001h.015l-.004-1-.004-1H247.96l-.122-.001a45.503 45.503 0 01-2.357-.112 63.152 63.152 0 01-6.589-.846c-5.398-.979-12.394-2.947-18.872-6.895l-1.04 1.708zM248 81.5c7.665 0 15.04-2.04 20.474-4.063a75.463 75.463 0 006.54-2.787 55.662 55.662 0 002.308-1.185l.127-.07.034-.02a.159.159 0 00.013-.006L277 72.5l-.496-.868h-.001l-.006.004a.895.895 0 00-.027.015l-.114.063a54.795 54.795 0 01-2.214 1.136 73.416 73.416 0 01-6.366 2.713C262.46 77.54 255.335 79.5 248 79.5v2zm29-9l.661-.75-.002-.002-.002-.002-.009-.007a19.179 19.179 0 00-1.764-1.257c-1.166-.734-2.923-1.7-5.325-2.66C265.751 65.897 258.375 64 248 64v2c10.125 0 17.249 1.852 21.816 3.678 2.285.915 3.935 1.824 5.003 2.496.534.337.923.614 1.174.803.126.094.217.167.274.213l.061.05.011.01.001.002v-.001h-.001s-.001-.001.661-.751zM248 65l.025-1H247.975a17.867 17.867 0 00-.64 0c-.439.005-1.078.021-1.885.066-1.614.09-3.907.292-6.64.744-5.461.903-12.707 2.807-19.802 6.82l.984 1.74c6.832-3.863 13.836-5.709 19.144-6.587a60.14 60.14 0 016.425-.72 41.761 41.761 0 012.264-.065 14.374 14.374 0 01.143.001h.007L248 65zM460 18l.528-.85-1.397 1.345L460 18zm105 14.725l.498.867 1.207-.692-1.042-.924-.663.749zM460 49l-.895-.446 1.478 1.259L460 49zm60.221-3.875v-1h-.005l.005 1zm0-24.025l-.026 1h.026v-1zM488 38.566l-.368.93.368-.93zm13.5-15.317l-.212-.978.212.978zm27.445-1.84l.073-.997-.073.997zm26.28 5.808l.385-.923-.385.923zM460 18l-.528.85h.002l.009.006.033.02.132.084.508.323c.439.282 1.067.69 1.821 1.195a109.897 109.897 0 015.522 3.935c2.011 1.538 3.989 3.196 5.456 4.739.734.772 1.317 1.49 1.71 2.13.404.655.548 1.132.548 1.443h2c0-.852-.362-1.707-.845-2.492-.493-.802-1.177-1.633-1.963-2.46-1.574-1.654-3.648-3.386-5.691-4.949a111.892 111.892 0 00-5.625-4.008 117.187 117.187 0 00-2.373-1.547l-.139-.088a2.597 2.597 0 01-.036-.022l-.01-.006-.002-.002h-.001L460 18zm15.213 14.725c0 .318-.15.824-.561 1.532-.399.687-.988 1.47-1.726 2.316-1.474 1.69-3.459 3.544-5.472 5.275a126.5 126.5 0 01-5.528 4.469 134.608 134.608 0 01-2.498 1.863c-.004.002-.007.004-.008.006l-.002.001h-.001L460 49l.583.812h.001l.002-.002.01-.007a2.84 2.84 0 01.036-.026l.138-.1.52-.38c.448-.33 1.086-.806 1.851-1.392 1.529-1.17 3.572-2.78 5.618-4.54 2.041-1.757 4.109-3.682 5.675-5.478.782-.898 1.46-1.787 1.947-2.625.475-.818.832-1.693.832-2.537h-2zM460 49l.895.446.001-.003.004-.007.014-.028.052-.106.198-.404a149.763 149.763 0 002.843-6.186c.777-1.804 1.56-3.745 2.151-5.488.578-1.702 1.018-3.346 1.018-4.499h-2c0 .785-.331 2.144-.912 3.857-.567 1.671-1.327 3.557-2.094 5.338a146.631 146.631 0 01-2.998 6.498l-.05.102-.013.026-.003.006-.001.002L460 49zm7.176-16.275c0-1.164-.446-2.716-1.027-4.283-.594-1.604-1.382-3.355-2.16-4.968a112.008 112.008 0 00-2.849-5.486l-.199-.356-.053-.093-.014-.025-.004-.006-.001-.002L460 18l-.869.495.001.001.003.006a3.48 3.48 0 01.063.112l.193.345a108.813 108.813 0 012.797 5.385c.765 1.585 1.522 3.273 2.086 4.793.577 1.558.902 2.814.902 3.588h2zm20.471-6.443a85.058 85.058 0 00-11.927 5.573l.987 1.74a83.135 83.135 0 0111.646-5.442l-.706-1.871zm-11.956 7.296c3.933 2.406 7.975 4.348 11.941 5.918l.736-1.86c-3.874-1.533-7.811-3.426-11.633-5.764l-1.044 1.706zM487 27.218v11.348h2V27.217h-2zm14.288-4.947a96.324 96.324 0 00-13.641 4.01l.706 1.872a94.361 94.361 0 0113.359-3.927l-.424-1.955zm-13.656 17.225c4.76 1.884 9.415 3.231 13.646 4.195l.444-1.95c-4.148-.945-8.704-2.264-13.354-4.105l-.736 1.86zM500.5 23.249v19.467h2V23.25h-2zm19.721-2.149l.025-1h-.001-.034l-.094-.002a50.075 50.075 0 00-1.714.016c-1.176.031-2.877.11-4.992.3l.178 1.991a77.987 77.987 0 014.867-.291 47.965 47.965 0 011.715-.015h.019a.03.03 0 01.004 0h.001l.026-.999zm-6.81-.687a99.75 99.75 0 00-12.123 1.858l.424 1.955a97.75 97.75 0 0111.877-1.82l-.178-1.993zm-12.133 23.278a102.598 102.598 0 0012.119 2.008l.206-1.99a100.64 100.64 0 01-11.881-1.968l-.444 1.95zm12.119 2.008c2.102.218 3.802.325 4.98.377a53.713 53.713 0 001.813.049h.035l-.004-1-.005-1h-.024a17.394 17.394 0 01-.417-.005 52.38 52.38 0 01-1.31-.042 82.951 82.951 0 01-4.862-.369l-.206 1.99zm-.897-24.29v23.295h2V21.409h-2zm16.518-.997c-2.76-.2-5.691-.312-8.797-.312v2c3.058 0 5.94.11 8.652.307l.145-1.995zm-8.797 25.713c2.992 0 5.955-.204 8.846-.559l-.243-1.985c-2.82.346-5.701.544-8.603.544v2zm7.724-24.716v23.165h2V21.409h-2zm1.122 24.157c4.827-.592 9.459-1.605 13.703-2.798l-.54-1.925c-4.166 1.17-8.698 2.16-13.406 2.738l.243 1.985zm13.359-23.296c-3.924-.83-8.383-1.493-13.408-1.858l-.145 1.995c4.935.358 9.305 1.009 13.139 1.82l.414-1.957zm1.074 19.52l-.281-18.556-2 .03.281 18.557 2-.03zm21.5-9.065l.663-.749h-.001l-.001-.002-.004-.003-.01-.008a16.963 16.963 0 00-.624-.5 28.365 28.365 0 00-1.852-1.284c-1.65-1.056-4.145-2.46-7.561-3.885l-.77 1.846c3.304 1.377 5.696 2.727 7.253 3.724.779.498 1.349.909 1.719 1.19.186.141.322.25.409.322l.094.079a.42.42 0 00.023.02l-.001-.001.663-.749zm-9.39-6.43c-3.438-1.434-7.807-2.887-13.184-4.025l-.414 1.957c5.253 1.112 9.503 2.527 12.828 3.913l.77-1.846zm-12.84 16.473a114.487 114.487 0 0012.839-4.468l-.767-1.848a112.534 112.534 0 01-12.612 4.39l.54 1.926zm12.839-4.468a110.631 110.631 0 007.216-3.296 76.79 76.79 0 002.489-1.308l.135-.076.035-.02.01-.005.002-.002h.001l-.497-.868-.497-.867h-.001-.001l-.007.004-.03.017-.123.07c-.111.061-.276.152-.495.27-.437.236-1.084.578-1.92.998-1.671.84-4.092 1.993-7.084 3.235l.767 1.848zm-1.384-11.083v10.159h2V27.217h-2zM269 104l.519-.855-1.383 1.358L269 104zm52 7.125l.489.872 1.242-.696-1.077-.932-.654.756zM269 119l-.891-.454 1.465 1.273L269 119zm29.824-1.875v-1h-.005l.005 1zm0-11.625l-.026 1h.026v-1zm-15.957 8.451l-.361.933.361-.933zm6.685-7.411l-.207-.979.207.979zm0 9.42l-.217.976.217-.976zm20.166-9.42l.202-.98-.202.98zm6.441 1.92l.377-.926-.377.926zM269 104l-.519.855h.001a.01.01 0 01.003.002l.016.01.064.04a43.526 43.526 0 011.142.727 53.854 53.854 0 012.709 1.886c.988.738 1.943 1.522 2.642 2.24.35.36.612.679.78.946.083.132.134.236.163.315.029.078.028.11.028.104h2c0-.558-.239-1.073-.498-1.485-.271-.43-.637-.861-1.04-1.275-.806-.829-1.858-1.685-2.878-2.447a56.24 56.24 0 00-3.998-2.714l-.07-.043-.019-.011-.005-.004h-.001-.001L269 104zm7.029 7.125c0-.005.001.033-.032.123a2.054 2.054 0 01-.172.35c-.174.293-.443.644-.796 1.041-.706.791-1.668 1.67-2.658 2.502a62.635 62.635 0 01-3.611 2.802l-.249.178-.064.046-.016.011-.004.002-.001.001.574.819.574.819.002-.001.005-.004.018-.013.07-.049.261-.187a67.149 67.149 0 003.728-2.893c1.018-.856 2.064-1.805 2.863-2.702.399-.447.758-.904 1.023-1.349.252-.424.485-.946.485-1.496h-2zM269 119l.891.454.001-.001.002-.004.007-.014.026-.052.099-.198c.085-.171.207-.416.352-.716.29-.599.678-1.419 1.066-2.3.388-.879.782-1.832 1.082-2.695.284-.82.533-1.692.533-2.349h-2c0 .281-.134.862-.423 1.694a34.817 34.817 0 01-1.022 2.543 70.877 70.877 0 01-1.472 3.12l-.025.048-.006.012-.002.003v.001L269 119zm4.059-7.875c0-.668-.255-1.499-.543-2.259a28.929 28.929 0 00-1.09-2.45 53.443 53.443 0 00-1.425-2.68l-.1-.176a2.247 2.247 0 01-.027-.046l-.007-.013-.002-.003h-.001v-.001L269 104l-.864.503.002.003.005.01.025.042.094.165a52.305 52.305 0 011.371 2.58c.375.759.742 1.559 1.013 2.272.285.752.413 1.281.413 1.55h2zm9.461-3.603a43.205 43.205 0 00-5.976 2.728l.97 1.75a41.087 41.087 0 015.699-2.602l-.693-1.876zm-6.004 4.461a39.274 39.274 0 005.99 2.901l.721-1.865a37.458 37.458 0 01-5.685-2.752l-1.026 1.716zm5.351-3.523v5.491h2v-5.491h-2zm7.478-2.899a49.077 49.077 0 00-6.825 1.96l.693 1.877a47.09 47.09 0 016.546-1.88l-.414-1.957zm-6.839 9.323a47.796 47.796 0 006.829 2.052l.435-1.953a45.79 45.79 0 01-6.543-1.964l-.721 1.865zm6.046-8.344v9.42h2v-9.42h-2zm10.272-1.04l.025-1h-.007a.99.99 0 00-.014 0h-.049l-.183-.002c-.159 0-.389.001-.685.01-.592.014-1.445.053-2.503.145l.174 1.993a39.051 39.051 0 012.38-.14 23.326 23.326 0 01.828-.007h.008l.026-.999zm-3.416-.847a50.99 50.99 0 00-6.063.908l.414 1.957a49.013 49.013 0 015.823-.872l-.174-1.993zm-6.073 12.283c2.352.523 4.444.816 6.059.98l.202-1.99a50.289 50.289 0 01-5.826-.943l-.435 1.953zm6.059.98c1.052.107 1.904.159 2.495.185a26.448 26.448 0 00.869.024h.07l-.004-1-.005-1h-.047l-.16-.002a23.928 23.928 0 01-.637-.021 40.959 40.959 0 01-2.379-.176l-.202 1.99zm-.899-12.266v11.271h2V105.65h-2zm8.72-.998a62.004 62.004 0 00-4.391-.152v2c1.503 0 2.919.052 4.25.147l.141-1.995zm-4.391 13.473c1.503 0 2.99-.1 4.439-.274l-.238-1.986c-1.379.166-2.786.26-4.201.26v2zm3.32-12.475v11.208h2V105.65h-2zm1.119 12.201a47.346 47.346 0 006.859-1.368l-.53-1.929a45.257 45.257 0 01-6.567 1.311l.238 1.986zm6.657-12.29a50.933 50.933 0 00-6.705-.909l-.141 1.995c2.422.172 4.564.484 6.442.872l.404-1.959zm.937 9.942l-.139-8.979-2 .031.139 8.979 2-.031zM321 111.125l.654-.757h-.001l-.001-.001-.002-.002a.66.66 0 01-.027-.023l-.068-.056c-.058-.046-.14-.11-.247-.19-.215-.159-.53-.38-.95-.643-.841-.526-2.102-1.219-3.822-1.92l-.754 1.853c1.608.655 2.767 1.295 3.515 1.763a11.95 11.95 0 011.005.697l.04.032.006.005c0 .001 0 .001 0 0l-.001-.001h-.001l.654-.757zm-4.464-3.591c-1.73-.705-3.923-1.417-6.616-1.974l-.404 1.959c2.571.532 4.647 1.208 6.266 1.867l.754-1.852zm-6.414 8.949a58.089 58.089 0 006.413-2.181l-.752-1.853a55.873 55.873 0 01-6.191 2.105l.53 1.929zm6.413-2.181a55.312 55.312 0 003.606-1.609c.428-.21.761-.382.99-.502l.262-.141.069-.038.019-.01a.022.022 0 00.005-.003l.002-.001.001-.001-.489-.872-.489-.872v-.001.001l-.003.001-.013.008-.059.032-.239.128c-.212.112-.528.275-.938.476-.818.402-2.007.955-3.476 1.551l.752 1.853zm-1.376-5.842v4.915h2v-4.915h-2z"
              fill="#0069FF" fill-rule="nonzero"/>
        <rect stroke="#0069FF" stroke-width="2" x="1108" y="35" width="12" height="35" rx="6"/>
        <rect stroke="#0069FF" stroke-width="2" x="1044" y="147" width="12" height="25" rx="6"/>
        <path d="M1074 129c0 3.25-2.84 6-6.5 6s-6.5-2.75-6.5-6 2.84-6 6.5-6 6.5 2.75 6.5 6z" stroke="#0069FF"
              stroke-width="2"/>
        <rect stroke="#0069FF" stroke-width="2" x="195" y="206" width="12" height="35" rx="6"/>
        <circle stroke="#0069FF" stroke-width="2" cx="227" cy="260" r="6"/>
        <path d="M115.45 51.21c-1.634-9.263-5.672-17.492-11.314-24.235l-1.233-6.994c-1.162-6.588-7.468-11.004-14.056-9.842l-6.994 1.233C73.587 8.376 64.473 7.396 55.21 9.03c-9.263 1.633-17.492 5.671-24.235 11.313l-6.994 1.234c-6.588 1.161-11.004 7.467-9.842 14.055l1.233 6.995c-2.996 8.266-3.976 17.38-2.342 26.642 1.633 9.263 5.671 17.492 11.313 24.235l1.234 6.994c1.161 6.588 7.467 11.004 14.055 9.843l6.995-1.234c8.266 2.996 17.38 3.976 26.642 2.343 9.263-1.634 17.492-5.672 24.235-11.314l6.994-1.233c6.588-1.162 11.004-7.468 9.843-14.056l-1.234-6.994c2.996-8.266 3.976-17.38 2.343-26.643zm-31.378 49.464l-4.456-13.326a31.307 31.307 0 0015.339-21.833l14.055-.37c-1.68 15.279-11.137 28.751-24.938 35.529zM23.846 80.16l13.335-4.46a31.307 31.307 0 0021.882 15.271l.37 14.046c-15.287-1.648-28.78-11.074-35.587-24.857zm20.538-60.344l4.457 13.328a31.306 31.306 0 00-15.347 21.989l-14.038.37c1.629-15.34 11.089-28.881 24.928-35.687zm60.32 20.656l-13.32 4.453a31.306 31.306 0 00-21.941-15.414l-.37-14.049c15.332 1.663 28.853 11.152 35.63 25.01zm-36.25 43.665C55.276 86.46 42.665 77.63 40.342 64.454c-2.324-13.178 6.506-25.789 19.684-28.112 13.177-2.324 25.788 6.506 28.112 19.684 2.323 13.177-6.507 25.788-19.684 28.112zm20.995-70.585c4.706-.83 9.21 2.324 10.04 7.03l.324 1.837a52.364 52.364 0 00-12.201-8.543l1.837-.324zM17.553 35.03c-.83-4.705 2.324-9.21 7.03-10.04l1.837-.323a52.364 52.364 0 00-8.543 12.2l-.324-1.837zm21.477 71.897c-4.705.83-9.21-2.325-10.04-7.03l-.323-1.838a52.364 52.364 0 0012.2 8.544l-1.837.324zm71.897-21.478c.83 4.706-2.325 9.21-7.03 10.04l-1.838.324a52.364 52.364 0 008.544-12.201l.324 1.837z"
              fill-opacity=".5" fill="#0069FF" fill-rule="nonzero"/>
    </g>
</svg>
